<mxfile host="drawio-plugin" modified="2024-02-02T06:47:21.465Z" agent="5.0 (X11; Linux x86_64) AppleWebKit/537.36 (KHTML, like Gecko) Chrome/111.0.0.0 Safari/537.36" etag="j8XyFAj2-nINQDCKO4Ay" version="20.5.3" type="embed"><diagram name="Page-1" id="9L5oCwXKukPPDeXqEJFU"><mxGraphModel dx="1340" dy="1171" grid="1" gridSize="10" guides="1" tooltips="1" connect="1" arrows="1" fold="1" page="0" pageScale="1" pageWidth="850" pageHeight="1100" background="none" math="0" shadow="0"><root><mxCell id="0"/><mxCell id="1" parent="0"/><mxCell id="6" value="" style="rounded=0;whiteSpace=wrap;html=1;fillColor=none;gradientColor=none;" parent="1" vertex="1"><mxGeometry x="10" y="220" width="850" height="510" as="geometry"/></mxCell><mxCell id="4" value="" style="rounded=0;whiteSpace=wrap;html=1;fillColor=none;gradientColor=none;" parent="1" vertex="1"><mxGeometry x="960" y="240" width="730" height="320" as="geometry"/></mxCell><mxCell id="18" value="" style="rounded=0;whiteSpace=wrap;html=1;fillColor=none;gradientColor=none;" parent="1" vertex="1"><mxGeometry x="995" y="-370" width="895" height="540" as="geometry"/></mxCell><mxCell id="16" value="" style="rounded=0;whiteSpace=wrap;html=1;fillColor=none;gradientColor=none;" parent="1" vertex="1"><mxGeometry x="20" y="-370" width="900" height="540" as="geometry"/></mxCell><mxCell id="U5qZKJpmwjKuic1yh8uf-46" style="edgeStyle=orthogonalEdgeStyle;rounded=0;orthogonalLoop=1;jettySize=auto;html=1;entryX=0;entryY=0.25;entryDx=0;entryDy=0;exitX=1;exitY=0.25;exitDx=0;exitDy=0;" parent="1" source="U5qZKJpmwjKuic1yh8uf-1" target="U5qZKJpmwjKuic1yh8uf-3" edge="1"><mxGeometry relative="1" as="geometry"/></mxCell><mxCell id="U5qZKJpmwjKuic1yh8uf-1" value="&lt;font face=&quot;Comic Sans MS&quot;&gt;order&lt;/font&gt;" style="rounded=1;whiteSpace=wrap;html=1;" parent="1" vertex="1"><mxGeometry x="200" y="320" width="120" height="60" as="geometry"/></mxCell><mxCell id="U5qZKJpmwjKuic1yh8uf-8" style="edgeStyle=orthogonalEdgeStyle;rounded=0;orthogonalLoop=1;jettySize=auto;html=1;" parent="1" source="U5qZKJpmwjKuic1yh8uf-3" target="U5qZKJpmwjKuic1yh8uf-6" edge="1"><mxGeometry relative="1" as="geometry"/></mxCell><mxCell id="U5qZKJpmwjKuic1yh8uf-47" style="edgeStyle=orthogonalEdgeStyle;rounded=0;orthogonalLoop=1;jettySize=auto;html=1;entryX=1;entryY=0.75;entryDx=0;entryDy=0;exitX=0;exitY=0.75;exitDx=0;exitDy=0;" parent="1" source="U5qZKJpmwjKuic1yh8uf-3" target="U5qZKJpmwjKuic1yh8uf-1" edge="1"><mxGeometry relative="1" as="geometry"/></mxCell><mxCell id="U5qZKJpmwjKuic1yh8uf-3" value="&lt;font face=&quot;Comic Sans MS&quot;&gt;inventory&lt;/font&gt;" style="rounded=1;whiteSpace=wrap;html=1;" parent="1" vertex="1"><mxGeometry x="590" y="320" width="120" height="60" as="geometry"/></mxCell><mxCell id="U5qZKJpmwjKuic1yh8uf-4" value="&lt;font face=&quot;Comic Sans MS&quot;&gt;shipping&lt;/font&gt;" style="rounded=1;whiteSpace=wrap;html=1;" parent="1" vertex="1"><mxGeometry x="380" y="520" width="120" height="60" as="geometry"/></mxCell><mxCell id="U5qZKJpmwjKuic1yh8uf-6" value="&lt;font face=&quot;Comic Sans MS&quot;&gt;in-memory db&lt;br&gt;&lt;/font&gt;" style="strokeWidth=2;html=1;shape=mxgraph.flowchart.database;whiteSpace=wrap;" parent="1" vertex="1"><mxGeometry x="750" y="310" width="90" height="80" as="geometry"/></mxCell><mxCell id="U5qZKJpmwjKuic1yh8uf-41" style="edgeStyle=orthogonalEdgeStyle;rounded=0;orthogonalLoop=1;jettySize=auto;html=1;" parent="1" source="U5qZKJpmwjKuic1yh8uf-7" target="U5qZKJpmwjKuic1yh8uf-4" edge="1"><mxGeometry relative="1" as="geometry"/></mxCell><mxCell id="U5qZKJpmwjKuic1yh8uf-7" value="&lt;font face=&quot;Comic Sans MS&quot;&gt;kafka&lt;br&gt;prod.orders.placed&lt;br&gt;&lt;/font&gt;" style="strokeWidth=2;html=1;shape=mxgraph.flowchart.direct_data;whiteSpace=wrap;" parent="1" vertex="1"><mxGeometry x="400" y="400" width="80" height="40" as="geometry"/></mxCell><mxCell id="U5qZKJpmwjKuic1yh8uf-24" value="&lt;font face=&quot;Comic Sans MS&quot;&gt;db&lt;br&gt;&lt;/font&gt;" style="strokeWidth=2;html=1;shape=mxgraph.flowchart.database;whiteSpace=wrap;" parent="1" vertex="1"><mxGeometry x="40" y="435" width="90" height="80" as="geometry"/></mxCell><mxCell id="U5qZKJpmwjKuic1yh8uf-25" style="edgeStyle=orthogonalEdgeStyle;rounded=0;orthogonalLoop=1;jettySize=auto;html=1;entryX=1;entryY=0.5;entryDx=0;entryDy=0;entryPerimeter=0;exitX=0;exitY=1;exitDx=0;exitDy=0;" parent="1" source="U5qZKJpmwjKuic1yh8uf-1" target="U5qZKJpmwjKuic1yh8uf-24" edge="1"><mxGeometry relative="1" as="geometry"/></mxCell><mxCell id="U5qZKJpmwjKuic1yh8uf-26" style="edgeStyle=orthogonalEdgeStyle;rounded=0;orthogonalLoop=1;jettySize=auto;html=1;entryX=0;entryY=0.5;entryDx=0;entryDy=0;entryPerimeter=0;exitX=0.5;exitY=1;exitDx=0;exitDy=0;" parent="1" source="U5qZKJpmwjKuic1yh8uf-1" target="U5qZKJpmwjKuic1yh8uf-7" edge="1"><mxGeometry relative="1" as="geometry"/></mxCell><mxCell id="U5qZKJpmwjKuic1yh8uf-29" value="&lt;font face=&quot;Comic Sans MS&quot;&gt;db&lt;br&gt;&lt;/font&gt;" style="strokeWidth=2;html=1;shape=mxgraph.flowchart.database;whiteSpace=wrap;" parent="1" vertex="1"><mxGeometry x="395" y="620" width="90" height="80" as="geometry"/></mxCell><mxCell id="U5qZKJpmwjKuic1yh8uf-31" style="edgeStyle=orthogonalEdgeStyle;rounded=0;orthogonalLoop=1;jettySize=auto;html=1;entryX=0.5;entryY=0.288;entryDx=0;entryDy=0;entryPerimeter=0;" parent="1" source="U5qZKJpmwjKuic1yh8uf-4" target="U5qZKJpmwjKuic1yh8uf-29" edge="1"><mxGeometry relative="1" as="geometry"/></mxCell><mxCell id="U5qZKJpmwjKuic1yh8uf-40" value="&lt;font face=&quot;Comic Sans MS&quot;&gt;kafka&lt;br&gt;prod.orders.shipped&lt;br&gt;&lt;/font&gt;" style="strokeWidth=2;html=1;shape=mxgraph.flowchart.direct_data;whiteSpace=wrap;" parent="1" vertex="1"><mxGeometry x="182" y="530" width="80" height="40" as="geometry"/></mxCell><mxCell id="U5qZKJpmwjKuic1yh8uf-43" style="edgeStyle=orthogonalEdgeStyle;rounded=0;orthogonalLoop=1;jettySize=auto;html=1;entryX=1;entryY=0.5;entryDx=0;entryDy=0;entryPerimeter=0;" parent="1" source="U5qZKJpmwjKuic1yh8uf-4" target="U5qZKJpmwjKuic1yh8uf-40" edge="1"><mxGeometry relative="1" as="geometry"/></mxCell><mxCell id="U5qZKJpmwjKuic1yh8uf-45" style="edgeStyle=orthogonalEdgeStyle;rounded=0;orthogonalLoop=1;jettySize=auto;html=1;entryX=0.183;entryY=0.983;entryDx=0;entryDy=0;entryPerimeter=0;" parent="1" source="U5qZKJpmwjKuic1yh8uf-40" target="U5qZKJpmwjKuic1yh8uf-1" edge="1"><mxGeometry relative="1" as="geometry"/></mxCell><mxCell id="gGRqJUYBQf3jrcAOIzdx-1" value="" style="rounded=1;whiteSpace=wrap;html=1;" parent="1" vertex="1"><mxGeometry x="30" y="-290" width="370" height="430" as="geometry"/></mxCell><mxCell id="gGRqJUYBQf3jrcAOIzdx-11" style="edgeStyle=orthogonalEdgeStyle;rounded=0;orthogonalLoop=1;jettySize=auto;html=1;exitX=0.25;exitY=1;exitDx=0;exitDy=0;" parent="1" source="gGRqJUYBQf3jrcAOIzdx-2" target="gGRqJUYBQf3jrcAOIzdx-3" edge="1"><mxGeometry relative="1" as="geometry"/></mxCell><mxCell id="gGRqJUYBQf3jrcAOIzdx-13" style="edgeStyle=orthogonalEdgeStyle;rounded=0;orthogonalLoop=1;jettySize=auto;html=1;exitX=0.75;exitY=1;exitDx=0;exitDy=0;entryX=0.417;entryY=-0.033;entryDx=0;entryDy=0;entryPerimeter=0;" parent="1" source="gGRqJUYBQf3jrcAOIzdx-2" target="gGRqJUYBQf3jrcAOIzdx-4" edge="1"><mxGeometry relative="1" as="geometry"/></mxCell><mxCell id="gGRqJUYBQf3jrcAOIzdx-2" value="external secret manager" style="rounded=1;whiteSpace=wrap;html=1;" parent="1" vertex="1"><mxGeometry x="80" y="-240" width="240" height="140" as="geometry"/></mxCell><mxCell id="gGRqJUYBQf3jrcAOIzdx-3" value="k8s &lt;br&gt;secret 1" style="rounded=1;whiteSpace=wrap;html=1;" parent="1" vertex="1"><mxGeometry x="80" y="-30" width="120" height="60" as="geometry"/></mxCell><mxCell id="gGRqJUYBQf3jrcAOIzdx-4" value="k8s &lt;br&gt;secret 2" style="rounded=1;whiteSpace=wrap;html=1;" parent="1" vertex="1"><mxGeometry x="210" y="-30" width="120" height="60" as="geometry"/></mxCell><mxCell id="gGRqJUYBQf3jrcAOIzdx-10" style="edgeStyle=orthogonalEdgeStyle;rounded=0;orthogonalLoop=1;jettySize=auto;html=1;entryX=1;entryY=0.5;entryDx=0;entryDy=0;" parent="1" target="gGRqJUYBQf3jrcAOIzdx-2" edge="1"><mxGeometry relative="1" as="geometry"><mxPoint x="470" y="-170" as="sourcePoint"/></mxGeometry></mxCell><mxCell id="gGRqJUYBQf3jrcAOIzdx-5" value="" style="rounded=1;whiteSpace=wrap;html=1;" parent="1" vertex="1"><mxGeometry x="480" y="-290" width="210" height="430" as="geometry"/></mxCell><mxCell id="gGRqJUYBQf3jrcAOIzdx-7" value="k8s secret 1&lt;br&gt;k8s&amp;nbsp;secret 2" style="text;html=1;strokeColor=none;fillColor=none;align=center;verticalAlign=middle;whiteSpace=wrap;rounded=0;" parent="1" vertex="1"><mxGeometry x="510" y="-240" width="150" height="30" as="geometry"/></mxCell><mxCell id="gGRqJUYBQf3jrcAOIzdx-8" value="k8s" style="text;html=1;align=center;verticalAlign=middle;resizable=0;points=[];autosize=1;strokeColor=none;fillColor=none;" parent="1" vertex="1"><mxGeometry x="182" y="-320" width="40" height="30" as="geometry"/></mxCell><mxCell id="gGRqJUYBQf3jrcAOIzdx-9" value="vault (secret provider)" style="text;strokeColor=none;align=center;fillColor=none;html=1;verticalAlign=middle;whiteSpace=wrap;rounded=0;" parent="1" vertex="1"><mxGeometry x="500" y="-320" width="160" height="30" as="geometry"/></mxCell><mxCell id="gGRqJUYBQf3jrcAOIzdx-15" value="We are controlling our secrets from Vault.&lt;br&gt;Automatically goes to or deletes from k8s." style="text;html=1;align=center;verticalAlign=middle;resizable=0;points=[];autosize=1;strokeColor=none;fillColor=none;" parent="1" vertex="1"><mxGeometry x="685" y="-275" width="250" height="40" as="geometry"/></mxCell><mxCell id="pC24YJ5IWRTdV-J8sgua-1" value="" style="rounded=1;whiteSpace=wrap;html=1;" parent="1" vertex="1"><mxGeometry x="1165" y="-347.5" width="690" height="495" as="geometry"/></mxCell><mxCell id="pC24YJ5IWRTdV-J8sgua-11" style="edgeStyle=orthogonalEdgeStyle;rounded=0;orthogonalLoop=1;jettySize=auto;html=1;entryX=0;entryY=0.5;entryDx=0;entryDy=0;exitX=1;exitY=0.564;exitDx=0;exitDy=0;exitPerimeter=0;" parent="1" source="pC24YJ5IWRTdV-J8sgua-2" target="pC24YJ5IWRTdV-J8sgua-10" edge="1"><mxGeometry relative="1" as="geometry"/></mxCell><mxCell id="pC24YJ5IWRTdV-J8sgua-12" style="edgeStyle=orthogonalEdgeStyle;rounded=0;orthogonalLoop=1;jettySize=auto;html=1;exitX=0.988;exitY=0.333;exitDx=0;exitDy=0;entryX=0;entryY=0.5;entryDx=0;entryDy=0;exitPerimeter=0;" parent="1" source="pC24YJ5IWRTdV-J8sgua-2" target="pC24YJ5IWRTdV-J8sgua-9" edge="1"><mxGeometry relative="1" as="geometry"/></mxCell><mxCell id="pC24YJ5IWRTdV-J8sgua-16" value="/order" style="edgeLabel;html=1;align=center;verticalAlign=middle;resizable=0;points=[];" parent="pC24YJ5IWRTdV-J8sgua-12" vertex="1" connectable="0"><mxGeometry x="-0.2831" y="8" relative="1" as="geometry"><mxPoint x="1" as="offset"/></mxGeometry></mxCell><mxCell id="pC24YJ5IWRTdV-J8sgua-15" style="edgeStyle=orthogonalEdgeStyle;rounded=0;orthogonalLoop=1;jettySize=auto;html=1;entryX=0;entryY=0.5;entryDx=0;entryDy=0;exitX=0.976;exitY=0.103;exitDx=0;exitDy=0;exitPerimeter=0;" parent="1" source="pC24YJ5IWRTdV-J8sgua-2" target="pC24YJ5IWRTdV-J8sgua-4" edge="1"><mxGeometry relative="1" as="geometry"/></mxCell><mxCell id="pC24YJ5IWRTdV-J8sgua-2" value="apisix - gateway" style="rounded=1;whiteSpace=wrap;html=1;arcSize=16;" parent="1" vertex="1"><mxGeometry x="1195" y="-302.5" width="170" height="390" as="geometry"/></mxCell><mxCell id="pC24YJ5IWRTdV-J8sgua-3" value="keycloak - identity manager" style="rounded=1;whiteSpace=wrap;html=1;" parent="1" vertex="1"><mxGeometry x="1435" y="37.5" width="80" height="90" as="geometry"/></mxCell><mxCell id="pC24YJ5IWRTdV-J8sgua-4" value="inventory" style="rounded=1;whiteSpace=wrap;html=1;" parent="1" vertex="1"><mxGeometry x="1575" y="-292.5" width="120" height="60" as="geometry"/></mxCell><mxCell id="pC24YJ5IWRTdV-J8sgua-8" value="" style="endArrow=classic;startArrow=classic;html=1;rounded=0;entryX=1;entryY=0.75;entryDx=0;entryDy=0;exitX=0;exitY=0;exitDx=0;exitDy=0;" parent="1" source="pC24YJ5IWRTdV-J8sgua-3" target="pC24YJ5IWRTdV-J8sgua-2" edge="1"><mxGeometry width="50" height="50" relative="1" as="geometry"><mxPoint x="1325" y="-42.5" as="sourcePoint"/><mxPoint x="1375" y="-92.5" as="targetPoint"/></mxGeometry></mxCell><mxCell id="pC24YJ5IWRTdV-J8sgua-9" value="order" style="rounded=1;whiteSpace=wrap;html=1;" parent="1" vertex="1"><mxGeometry x="1575" y="-202.5" width="120" height="60" as="geometry"/></mxCell><mxCell id="pC24YJ5IWRTdV-J8sgua-10" value="shipping" style="rounded=1;whiteSpace=wrap;html=1;" parent="1" vertex="1"><mxGeometry x="1575" y="-112.5" width="120" height="60" as="geometry"/></mxCell><mxCell id="pC24YJ5IWRTdV-J8sgua-20" value="/inventories" style="text;html=1;strokeColor=none;fillColor=none;align=center;verticalAlign=middle;whiteSpace=wrap;rounded=0;" parent="1" vertex="1"><mxGeometry x="1435" y="-292.5" width="60" height="30" as="geometry"/></mxCell><mxCell id="pC24YJ5IWRTdV-J8sgua-21" value="/shipping" style="text;html=1;strokeColor=none;fillColor=none;align=center;verticalAlign=middle;whiteSpace=wrap;rounded=0;" parent="1" vertex="1"><mxGeometry x="1425" y="-112.5" width="60" height="30" as="geometry"/></mxCell><mxCell id="pC24YJ5IWRTdV-J8sgua-23" value="Actor" style="shape=umlActor;verticalLabelPosition=bottom;verticalAlign=top;html=1;outlineConnect=0;" parent="1" vertex="1"><mxGeometry x="1040" y="-137.5" width="30" height="60" as="geometry"/></mxCell><mxCell id="pC24YJ5IWRTdV-J8sgua-24" style="edgeStyle=orthogonalEdgeStyle;rounded=0;orthogonalLoop=1;jettySize=auto;html=1;entryX=0;entryY=0.5;entryDx=0;entryDy=0;" parent="1" source="pC24YJ5IWRTdV-J8sgua-23" target="pC24YJ5IWRTdV-J8sgua-2" edge="1"><mxGeometry relative="1" as="geometry"/></mxCell><mxCell id="pC24YJ5IWRTdV-J8sgua-25" value="for db pwd" style="text;html=1;align=center;verticalAlign=middle;resizable=0;points=[];autosize=1;strokeColor=none;fillColor=none;" parent="1" vertex="1"><mxGeometry x="680" y="-320" width="80" height="30" as="geometry"/></mxCell><mxCell id="btFb5VA50XGffJNv-ctb-5" style="edgeStyle=orthogonalEdgeStyle;rounded=0;orthogonalLoop=1;jettySize=auto;html=1;entryX=0.5;entryY=0;entryDx=0;entryDy=0;exitX=0;exitY=0.5;exitDx=0;exitDy=0;" parent="1" source="btFb5VA50XGffJNv-ctb-2" target="btFb5VA50XGffJNv-ctb-1" edge="1"><mxGeometry relative="1" as="geometry"/></mxCell><mxCell id="btFb5VA50XGffJNv-ctb-6" value="/actuator/prometheus" style="edgeLabel;html=1;align=center;verticalAlign=middle;resizable=0;points=[];" parent="btFb5VA50XGffJNv-ctb-5" vertex="1" connectable="0"><mxGeometry x="-0.26" y="8" relative="1" as="geometry"><mxPoint x="-56" y="-23" as="offset"/></mxGeometry></mxCell><mxCell id="21" style="edgeStyle=orthogonalEdgeStyle;rounded=0;orthogonalLoop=1;jettySize=auto;html=1;" parent="1" source="btFb5VA50XGffJNv-ctb-1" target="9" edge="1"><mxGeometry relative="1" as="geometry"/></mxCell><mxCell id="btFb5VA50XGffJNv-ctb-1" value="apps" style="rounded=1;whiteSpace=wrap;html=1;" parent="1" vertex="1"><mxGeometry x="980" y="380" width="120" height="70" as="geometry"/></mxCell><mxCell id="btFb5VA50XGffJNv-ctb-2" value="prometheus&lt;br&gt;-&lt;br&gt;(time-series db for metrics)" style="rounded=1;whiteSpace=wrap;html=1;" parent="1" vertex="1"><mxGeometry x="1250" y="280" width="110" height="90" as="geometry"/></mxCell><mxCell id="btFb5VA50XGffJNv-ctb-3" value="grafana&lt;br&gt;-&lt;br&gt;(visualize all)" style="rounded=1;whiteSpace=wrap;html=1;" parent="1" vertex="1"><mxGeometry x="1520" y="380" width="120" height="70" as="geometry"/></mxCell><mxCell id="2" value="(pulls metrics - scraping)" style="text;html=1;align=center;verticalAlign=middle;resizable=0;points=[];autosize=1;strokeColor=none;fillColor=none;" parent="1" vertex="1"><mxGeometry x="1100" y="320" width="150" height="30" as="geometry"/></mxCell><mxCell id="5" value="instrumenting &amp;amp; tracing diagram" style="text;html=1;align=center;verticalAlign=middle;resizable=0;points=[];autosize=1;strokeColor=#2D7600;fillColor=#60a917;fontColor=#ffffff;" parent="1" vertex="1"><mxGeometry x="960" y="240" width="190" height="30" as="geometry"/></mxCell><mxCell id="7" value="apps architecture" style="text;html=1;align=center;verticalAlign=middle;resizable=0;points=[];autosize=1;strokeColor=#2D7600;fillColor=#60a917;fontColor=#ffffff;" parent="1" vertex="1"><mxGeometry x="10" y="220" width="120" height="30" as="geometry"/></mxCell><mxCell id="8" value="- micrometer lib.&lt;br&gt;- opentelemetry lib." style="text;html=1;align=left;verticalAlign=middle;resizable=0;points=[];autosize=1;strokeColor=none;fillColor=none;" parent="1" vertex="1"><mxGeometry x="980" y="450" width="130" height="40" as="geometry"/></mxCell><mxCell id="9" value="grafana loki&lt;br&gt;-&lt;br&gt;(Log aggregation)" style="rounded=1;whiteSpace=wrap;html=1;fillColor=default;gradientColor=none;" parent="1" vertex="1"><mxGeometry x="1250" y="380" width="120" height="70" as="geometry"/></mxCell><mxCell id="11" value="grafana tempo&lt;br&gt;-&lt;br&gt;(visualize&amp;nbsp;latencies - distributed tracing)" style="rounded=1;whiteSpace=wrap;html=1;fillColor=default;gradientColor=none;" parent="1" vertex="1"><mxGeometry x="1250" y="460" width="120" height="70" as="geometry"/></mxCell><mxCell id="15" value="" style="verticalLabelPosition=bottom;verticalAlign=top;html=1;strokeWidth=2;shape=mxgraph.arrows2.arrow;dy=0.6;dx=40;notch=0;fillColor=none;gradientColor=none;" parent="1" vertex="1"><mxGeometry x="1392.5" y="385" width="100" height="70" as="geometry"/></mxCell><mxCell id="17" value="secret mgmt on k8s" style="text;html=1;align=center;verticalAlign=middle;resizable=0;points=[];autosize=1;strokeColor=#2D7600;fillColor=#60a917;fontColor=#ffffff;" parent="1" vertex="1"><mxGeometry x="20" y="-370" width="130" height="30" as="geometry"/></mxCell><mxCell id="19" value="api gateway &amp;amp; keycloak" style="text;html=1;align=center;verticalAlign=middle;resizable=0;points=[];autosize=1;strokeColor=#2D7600;fillColor=#60a917;fontColor=#ffffff;" parent="1" vertex="1"><mxGeometry x="995" y="-370" width="150" height="30" as="geometry"/></mxCell><mxCell id="26" value="" style="endArrow=classic;html=1;rounded=0;entryX=0;entryY=0.5;entryDx=0;entryDy=0;exitX=1;exitY=0.75;exitDx=0;exitDy=0;" parent="1" source="btFb5VA50XGffJNv-ctb-1" target="11" edge="1"><mxGeometry width="50" height="50" relative="1" as="geometry"><mxPoint x="1120" y="495" as="sourcePoint"/><mxPoint x="1170" y="445" as="targetPoint"/></mxGeometry></mxCell><mxCell id="27" value="push logs" style="text;html=1;strokeColor=none;fillColor=none;align=center;verticalAlign=middle;whiteSpace=wrap;rounded=0;" parent="1" vertex="1"><mxGeometry x="1145" y="390" width="60" height="30" as="geometry"/></mxCell><mxCell id="28" value="added as a data source - grafana pulls" style="text;html=1;strokeColor=none;fillColor=none;align=center;verticalAlign=middle;whiteSpace=wrap;rounded=0;" vertex="1" parent="1"><mxGeometry x="1412.5" y="320" width="60" height="30" as="geometry"/></mxCell><mxCell id="32" style="edgeStyle=orthogonalEdgeStyle;rounded=0;orthogonalLoop=1;jettySize=auto;html=1;entryX=0;entryY=0.25;entryDx=0;entryDy=0;" edge="1" parent="1" source="29" target="U5qZKJpmwjKuic1yh8uf-1"><mxGeometry relative="1" as="geometry"/></mxCell><mxCell id="29" value="Actor" style="shape=umlActor;verticalLabelPosition=bottom;verticalAlign=top;html=1;outlineConnect=0;" vertex="1" parent="1"><mxGeometry x="70" y="305" width="30" height="60" as="geometry"/></mxCell><mxCell id="33" value="/orders" style="text;html=1;strokeColor=none;fillColor=none;align=center;verticalAlign=middle;whiteSpace=wrap;rounded=0;" vertex="1" parent="1"><mxGeometry x="120" y="310" width="60" height="30" as="geometry"/></mxCell></root></mxGraphModel></diagram></mxfile>